<svg xmlns="http://www.w3.org/2000/svg" width="256" height="256" fill="none" viewBox="0 0 256 256">
<!-- SVG created with Arrow, by QuiverAI (https://quiver.ai) -->
  <path d="m248.2 145.6c0-24.66-19.9-44.61-44.97-44.61h-2c-2.05-33.87-25.19-68.91-72.71-71.75 24.71 0.83 42.25 18.8 37.29 40.93-1.06 4.61-3.46 9.48-6.09 13.71l-42.79 69.71c-12.93 21.56-32.94 33.98-54.88 34.51h32.42c23.2 0 67.27 37.87 101.6 37.87 9.08 0 12.55-5.78 12.55-9.73s-2.42-6.15-4.62-8.12c-3.66-3.19-7.02-7.15-7.02-10.4 0-5.55 4.52-9.08 9.22-9.08 23.1-0.8 42-20.45 42-43.04z" fill="url(#paint0_linear_1078_17311)"/>
  <path d="m233.9 111.5c-8.82-6.67-24.34-8.24-39.72-0.36-13.09 6.9-20.11 16.16-43.62 37.86-16.47 15.09-35.58 35.49-71.77 39.16l-15.78 0.02c21.94-0.54 40.95-12.97 53.87-34.52l42.8-69.72c2.63-4.23 5.03-9.1 6.09-13.71 4.02-17.83-7.74-36.15-28.74-40.39 31.75 3.99 62.06 28.31 64.16 71.21h2c12.2 0 23.17 5.05 30.71 10.45z" fill="url(#paint1_linear_1078_17311)"/>
  <path d="m128.6 29.26c-33.6-0.25-60.5 22.53-68.64 51.24-28.4 0.63-52.67 23.69-52.67 54.48 0 27.94 21.86 53.16 52.67 53.16h3.06c21.94-0.53 40.95-12.96 53.87-34.51l42.8-69.71c2.63-4.23 5.03-9.1 6.09-13.71 4.96-22.14-12.58-40.11-37.18-40.95z" fill="url(#paint2_linear_1078_17311)"/>
  <path d="m61.45 108.9-18.76 44.88h8.19l4.39-10.18h20.34l4.67 10.18h8.79l-19.91-44.88h-7.71zm-3.26 27.88 7.23-19.03 7.3 19.03h-14.53z" fill="url(#paint3_linear_1078_17311)"/>
  <defs>
    <linearGradient id="paint0_linear_1078_17311" x1="158.6" x2="158.6" y1="29.28" y2="226" gradientUnits="userSpaceOnUse">
      <stop stop-color="#005BA1" offset="0"/>
      <stop stop-color="#0058A1" offset=".268"/>
      <stop stop-color="#0051A0" offset=".44"/>
      <stop stop-color="#00439E" offset=".588"/>
      <stop stop-color="#00309C" offset=".722"/>
      <stop stop-color="#001899" offset=".846"/>
      <stop stop-color="#000096" offset=".96"/>
      <stop stop-color="#000096" offset="1"/>
    </linearGradient>
    <linearGradient id="paint1_linear_1078_17311" x1="117.1" x2="171.8" y1="30.9" y2="139.1" gradientUnits="userSpaceOnUse">
      <stop stop-color="#00B6FF" offset="0"/>
      <stop stop-color="#00B6FF" offset="1"/>
    </linearGradient>
    <linearGradient id="paint2_linear_1078_17311" x1="33.06" x2="147" y1="54.91" y2="168.9" gradientUnits="userSpaceOnUse">
      <stop stop-color="#0054A6" offset="0"/>
      <stop stop-color="#0052A6" offset=".268"/>
      <stop stop-color="#004BA5" offset=".44"/>
      <stop stop-color="#003FA3" offset=".588"/>
      <stop stop-color="#002D9F" offset=".722"/>
      <stop stop-color="#00159B" offset=".846"/>
      <stop stop-color="#000096" offset=".96"/>
      <stop stop-color="#000096" offset="1"/>
    </linearGradient>
    <linearGradient id="paint3_linear_1078_17311" x1="65.88" x2="65.88" y1="108.9" y2="153.8" gradientUnits="userSpaceOnUse">
      <stop stop-color="#00B6FF" offset="0"/>
      <stop stop-color="#00B6FF" offset="1"/>
    </linearGradient>
  </defs>
</svg>